# xmcd
#
# Track frame offsets:
#	150
#	18560
#	41301
#	59137
#	76373
#	93839
#	109487
#	124616
#	136045
#	150669
#	165417
#	181475
#	201100
#	220450
#	233972
#	247294
#
# Disc length: 3433 seconds
#
# Revision: 0
# Processed by: cddbd v1.5.2PL0 Copyright (c) Steve Scherf et al.
# Submitted via: EZCDAudioConverter 2.1.1.1
#
DISCID=df0d6710
DTITLE=Giwrgos Katsaros - Romantico Cd3
DYEAR=2015
DGENRE=Instrumental
TTITLE0=Adagio
TTITLE1=Nocturne
TTITLE2=Serenate
TTITLE3=Dont Cry For Me Argentina
TTITLE4=Bilitis (Theme)
TTITLE5=Europa (Earth's Cry Hevens Smile)
TTITLE6=Masterpiece
TTITLE7=L' Oliseau Et L' Enfant
TTITLE8=Apres Toi
TTITLE9=Petite Fleur
TTITLE10=Tango D' Amour
TTITLE11=Why Cant We Live Toghether
TTITLE12=Twist In My Sobriety
TTITLE13=First Time
TTITLE14=Papa Tango Charly
TTITLE15=Ding A Dong
EXTD=
EXTT0=
EXTT1=
EXTT2=
EXTT3=
EXTT4=
EXTT5=
EXTT6=
EXTT7=
EXTT8=
EXTT9=
EXTT10=
EXTT11=
EXTT12=
EXTT13=
EXTT14=
EXTT15=
PLAYORDER=
